<svg xmlns="http://www.w3.org/2000/svg" height="800" width="1200" version="1.0" viewBox="-43.136505 -5.1172 373.84971 30.7032"><g font-weight="400" font-family="Bitstream Vera Sans" fill="#9c835a"><path d="M284.5355.2c.5109 0 1.0097.1311 1.4964.3933.4867.2622.8658.6373 1.1374 1.1253.2716.488.4073.9969.4073 1.5266 0 .5244-.1337 1.0285-.4013 1.5125-.2675.484-.6426.8598-1.1253 1.1273-.4826.2676-.9875.4014-1.5145.4014-.527 0-1.0319-.1338-1.5145-.4014-.4827-.2675-.8585-.6433-1.1273-1.1273-.269-.484-.4034-.9881-.4034-1.5125 0-.5297.1365-1.0386.4094-1.5266.273-.488.6527-.8631 1.1394-1.1253S284.0246.2 284.5355.2zm0 .5042c-.4275 0-.8437.1096-1.2483.3287-.4047.2192-.7213.5324-.9499.9398-.2285.4074-.3428.8315-.3428 1.2725 0 .4383.1122.8584.3368 1.2604.2245.402.5384.7153.9418.9398.4033.2245.8241.3368 1.2624.3368.4383 0 .8591-.1123 1.2624-.3368.4034-.2245.7166-.5378.9398-.9398.2232-.402.3348-.822.3348-1.2604 0-.441-.1136-.8651-.3408-1.2725-.2272-.4074-.5439-.7206-.9499-.9398-.406-.2191-.8215-.3287-1.2463-.3287zm-1.335 4.223V1.652h1.1253c.3845 0 .6628.0303.8349.0908a.8093.8093 0 01.4114.3166c.1022.1506.1532.3106.1532.48 0 .2393-.0854.4477-.256.6251-.1708.1775-.3974.277-.6797.2985.1156.0484.2084.1062.2783.1735.1318.129.293.3455.484.6493l.3993.6413h-.6453l-.2904-.5162c-.2286-.406-.4128-.6602-.5526-.7623-.0968-.0753-.238-.113-.4235-.113h-.3106v1.3915zm.5283-1.8433h.6413c.3066 0 .5156-.0457.6272-.1372.1116-.0914.1674-.2124.1674-.363a.4419.4419 0 00-.0807-.2601c-.0538-.0766-.1284-.1338-.2239-.1714-.0955-.0377-.2722-.0565-.5303-.0565h-.601z" font-size="8.2603"/><path d="M22.3828 18.75V7.0312c0-1.6145-.7682-2.4218-2.3047-2.4218-2.0052 0-3.0078 1.1979-3.0078 3.5937v6.7578c0 1.6146.8203 2.422 2.461 2.422V18.75H0v-1.3672c1.6406 0 2.461-.8073 2.461-2.4219V6.9141c0-1.6146-.8204-2.4219-2.461-2.422V3.125h17.0703v1.6406c1.276-1.3541 3.0469-2.0312 5.3125-2.0312h7.6563c2.552 0 4.6874.8333 6.4062 2.5 1.4583-1.6667 3.3984-2.5 5.8203-2.5h8.8672c3.8541 0 5.7812 1.6797 5.7813 5.039v7.1875c-.0001 1.6146.8202 2.422 2.4609 2.422V18.75H42.3047V7.0312c0-1.6145-.7683-2.4218-2.3047-2.4218-2.0052 0-3.0079 1.1979-3.0078 3.5937v6.7578c0 1.6146.8203 2.422 2.461 2.422V18.75zm59.2188-2.3438c.7551 0 1.4648-.1627 2.1289-.4882.664-.3255.996-.7097.996-1.1524V11.797c0-.5469-.3385-.9961-1.0156-1.3477-.677-.3515-1.3802-.5273-2.1093-.5273-.8334 0-1.6602.3125-2.4805.9375-.8203.625-1.2305 1.3932-1.2305 2.3047 0 .9114.4102 1.6797 1.2305 2.3047.8203.625 1.6471.9375 2.4805.9375zm3.125-6.5624c0-2.3698-.6902-3.8542-2.0704-4.4532-1.3541-.599-3.2291-.8984-5.625-.8984-2.526 0-5.078.4688-7.6562 1.4062l-2.9297 1.0157V1.328h2.9297v3.4766c2.8385-.9115 5.5143-1.4844 8.0273-1.7188 2.513-.2343 5.1237-.3515 7.832-.3515h8.3204c3.8541 0 5.7812 1.6797 5.7812 5.039v7.1875c0 1.6146.8203 2.422 2.461 2.422V18.75H84.7266v-2.1094c-.573.3907-1.263.7292-2.0704 1.0157-2.7343.9895-5.2864 1.4843-7.6562 1.4843-3.3594 0-6.1524-.5534-8.379-1.6601-2.2265-1.1068-3.3398-2.5065-3.3397-4.1993 0-1.6927 1.0481-3.0924 3.1445-4.1992C68.522 7.9753 71.3802 7.422 75 7.422c2.6302 0 5.2344.4948 7.8125 1.4844.7552.2604 1.3932.5729 1.914.9375zm41.6796-3.0079c-1.0677.5209-1.901 1.2891-2.5 2.3047-.703 1.0938-1.0547 2.1615-1.0546 3.2032v2.6171c0 1.6146.8203 2.422 2.4609 2.422V18.75h-19.5313v-1.3672c1.6407 0 2.461-.8073 2.461-2.4219V6.9141c0-1.6146-.8203-2.4219-2.461-2.422V3.125h17.0704V7.5c.9114-1.0417 2.2135-2.0377 3.9062-2.9883 1.6927-.9505 3.2292-1.53 4.6094-1.7383.5729-.1041 1.1979-.1562 1.875-.1562 2.0312 0 3.7109.5404 5.039 1.621 1.3281 1.0808 1.9922 2.4285 1.9922 4.043 0 1.6407-.664 2.9948-1.9922 4.0625-1.3281 1.0678-3.0078 1.6016-5.039 1.6016-2.0313 0-3.711-.5338-5.039-1.6015-1.3282-1.0678-1.9923-2.422-1.9923-4.0625 0-.4948.0651-.9766.1953-1.4454zm35.1954 9.5704c.7552 0 1.4648-.1628 2.1289-.4883.664-.3255.996-.7097.996-1.1524V11.797c0-.5469-.3385-.9961-1.0156-1.3477-.677-.3515-1.3802-.5273-2.1093-.5273-.8334 0-1.6602.3125-2.4805.9375-.8203.625-1.2305 1.3932-1.2305 2.3047 0 .9114.4102 1.6797 1.2305 2.3047.8203.625 1.6471.9375 2.4805.9375zm3.125-6.5626c0-2.3697-.6902-3.8541-2.0703-4.453-1.3542-.599-3.2292-.8985-5.625-.8985-2.5261 0-5.0782.4688-7.6563 1.4062l-2.9297 1.0157V1.328h2.9297v3.4766c2.8385-.9115 5.5143-1.4844 8.0273-1.7188 2.513-.2343 5.1237-.3515 7.832-.3515h8.3204c3.8541 0 5.7812 1.6797 5.7812 5.039v7.1875c0 1.6146.8203 2.422 2.461 2.422V18.75h-17.0703v-2.1094c-.573.3907-1.263.7292-2.0703 1.0157-2.7344.9895-5.2865 1.4843-7.6563 1.4843-3.3594 0-6.1524-.5534-8.379-1.6601-2.2265-1.1068-3.3397-2.5065-3.3397-4.1993 0-1.6927 1.0481-3.0924 3.1445-4.1992 2.0962-1.1067 4.9544-1.66 8.5742-1.66 2.6302 0 5.2344.4948 7.8125 1.4844.7552.2604 1.3932.5729 1.914.9375zm44.2187 8.9063V7.0312c0-1.6145-1.0287-2.4218-3.086-2.4218-2.0051 0-3.0078 1.1979-3.0077 3.5937v6.7578c0 1.6146.8203 2.422 2.4609 2.422V18.75h-19.5313v-1.3672c1.6407 0 2.461-.8073 2.461-2.4219V6.9141c0-1.6146-.8203-2.4219-2.461-2.422V3.125h17.0704v1.6406c1.276-1.3541 3.3072-2.0312 6.0937-2.0312h8.8281c3.8542 0 5.7812 1.6797 5.7813 5.039v7.1875c0 1.6146.8203 2.422 2.461 2.422V18.75zM245.7813 0v3.125h2.4609v1.5625h-2.461v10.2734c0 1.6146.8203 2.422 2.461 2.422V18.75h-12.8906c-2.7865 0-4.1797-1.3932-4.1797-4.1797V4.6875h-2.461V3.125h2.461V0zm6.4062 1.3672h2.9297V3.125h24.4531l-8.8672 14.0625h6.289v-1.7969h2.9298v5.0782h-2.9297V18.75h-24.5313l8.8672-14.0625h-6.211v1.9531h-2.9296z" font-size="78.9226"/></g></svg>