<svg width="1285" height="2600" viewBox="0 0 1285 2600" fill="none" xmlns="http://www.w3.org/2000/svg">
<g clip-path="url(#clip0_427_287)">
<path d="M1277.37 636.74C1211.6 528.06 1145.84 419.64 1079.81 311.22C1045.5 255.06 1010.67 199.16 975.833 143L962.055 122.72C898.889 26.2601 773.595 -37.1799 651.941 23.9201C543.284 78.5201 496.234 209.04 551.863 317.2C572.918 358.28 608.271 392.86 640.504 427.18C739.803 532.74 842.481 635.44 941 741.78C1089.69 901.94 1033.8 1155.96 832.863 1240.98L826.364 1243.58C826.364 1162.2 826.364 1077.96 826.364 996.32C826.364 914.68 826.364 834.08 826.364 748.8C648.042 840.84 495.455 960.44 363.403 1107.6C158.306 1336.66 37.1721 1622.4 0 1830.92C112.556 1773.46 223.812 1717.04 334.809 1660.36C446.065 1603.68 556.542 1548.04 672.217 1489.28V2443.48L826.364 2600V1409.2C826.364 1409.2 830.003 1407.64 841.441 1401.4C886.931 1377.22 934.501 1355.9 976.352 1326.52C1206.14 1165.32 1237.08 839.02 1043.42 636.22C929.042 516.36 813.887 397.28 699.511 277.42C666.238 242.58 667.018 198.38 699.511 167.44C731.225 137.28 776.455 139.88 809.988 173.68C825.844 189.8 933.202 303.16 971.673 343.2C1068.37 444.6 1165.33 545.48 1262.29 646.62C1267.23 651.56 1272.95 655.72 1278.41 660.4C1280.49 659.1 1282.57 658.06 1284.39 656.76C1282.05 650 1281.27 642.72 1277.63 636.74H1277.37ZM671.957 1312.22C671.957 1318.72 664.159 1327.56 657.92 1330.94C596.573 1363.44 534.966 1395.16 473.099 1426.88C399.795 1464.58 326.491 1502.02 248.247 1542.32C350.405 1331.98 489.736 1160.12 669.618 1019.98L672.477 1017.64C672.477 1113.32 672.997 1216.8 671.957 1312.48V1312.22Z" fill="white"/>
</g>
<defs>
<clipPath id="clip0_427_287">
<rect width="1284.13" height="2600" fill="white"/>
</clipPath>
</defs>
</svg>
