<svg width="423" height="391" viewBox="0 0 423 391" fill="none" xmlns="http://www.w3.org/2000/svg">
<path d="M59.7627 46.5532C76.2415 57.898 69.4888 80.6549 65.8891 96.6941C60.9331 118.818 62.6571 138.654 75.4814 158.122C100.513 196.122 146.632 218.819 185.103 240.408C209.097 253.871 228.46 272.463 234.972 300.702C243.375 337.148 221.825 366.912 184.529 370.848C159.707 373.471 133.902 366.779 114.329 351.059C90.6259 332.019 85.1306 305.844 78.1874 277.782C74.9434 264.703 70.4486 251.524 61.6927 241.29C55.4243 233.961 47.2291 228.473 38.4797 224.417C28.4332 219.763 21.0059 220.372 12.603 227.278C5.39729 233.203 -1.25188 239.001 -11.299 237.112C-71.2644 225.877 1.49396 6.4613 59.7627 46.5532Z" fill="#008080" fill-opacity="0.12" style="mix-blend-mode:multiply"/>
<path d="M369.614 339.876C352.669 329.257 358.437 306.223 361.336 290.044C365.334 267.728 362.76 247.978 349.112 229.086C322.465 192.206 275.407 171.517 236.04 151.6C211.486 139.183 191.344 121.435 183.62 93.5138C173.65 57.4676 193.904 26.7997 230.997 21.2617C255.684 17.5745 281.754 23.1464 301.991 38.0077C326.495 56.0027 333.104 81.926 341.262 109.659C345.059 122.59 350.116 135.557 359.315 145.409C365.895 152.455 374.315 157.588 383.233 161.26C393.465 165.481 400.867 164.546 408.957 157.286C415.9 151.056 422.3 144.979 432.413 146.429C492.816 155.075 429.568 377.423 369.628 339.87L369.614 339.876Z" fill="#008080" fill-opacity="0.12" style="mix-blend-mode:multiply"/>
</svg>
