<svg width="242" height="325" viewBox="0 0 242 325" fill="none" xmlns="http://www.w3.org/2000/svg">
<path d="M188.614 319.876C171.669 309.257 177.437 286.223 180.336 270.044C184.334 247.728 181.76 227.978 168.112 209.086C141.465 172.206 94.4069 151.517 55.0399 131.6C30.4856 119.183 10.344 101.435 2.62 73.5138C-7.35047 37.4676 12.9042 6.79967 49.997 1.26173C74.6838 -2.42555 100.754 3.14637 120.991 18.0077C145.495 36.0027 152.104 61.926 160.262 89.6593C164.059 102.59 169.116 115.557 178.315 125.409C184.895 132.455 193.315 137.588 202.233 141.26C212.465 145.481 219.867 144.546 227.957 137.286C234.9 131.056 241.3 124.979 251.413 126.429C311.816 135.075 248.568 357.423 188.628 319.87L188.614 319.876Z" fill="#008080" fill-opacity="0.12" style="mix-blend-mode:multiply"/>
</svg>
