<svg width="2600" height="656" viewBox="0 0 2600 656" fill="none" xmlns="http://www.w3.org/2000/svg">
<g clip-path="url(#clip0_427_268)">
<path d="M516.275 3.30371H452.37V192.026H516.275V3.30371Z" fill="white"/>
<path d="M374.909 5.91093L245.19 85.1327C243.345 86.2594 241.023 86.2594 239.178 85.1327L109.459 5.91093C106.668 4.20649 103.46 3.30371 100.19 3.30371H100.03C90.2061 3.30371 82.2437 11.2662 82.2437 21.0896V191.812H146.109V110.552C146.109 105.563 151.572 102.501 155.828 105.105L228.523 149.577C235.688 153.96 244.685 154.044 251.93 149.794L328.643 104.8C332.901 102.302 338.262 105.373 338.262 110.309V191.813H402.127V21.0896C402.127 11.2662 394.164 3.30371 384.341 3.30371H384.181C380.91 3.30371 377.7 4.20528 374.909 5.91093Z" fill="white"/>
<path d="M834.938 3.30371H770.132V89.2036C770.132 94.0232 764.997 97.1071 760.743 94.8406L592.781 5.39214C590.207 4.02112 587.336 3.30491 584.42 3.30491H584.305C574.482 3.30491 566.52 11.2674 566.52 21.0908V191.824H630.813V106.022C630.813 101.207 635.938 98.1231 640.192 100.379L808.818 189.814C811.384 191.175 814.247 191.887 817.151 191.887C826.975 191.887 834.937 183.924 834.937 174.101L834.938 3.30371Z" fill="white"/>
<path d="M885.184 192.028V3.30371H914.595V192.026L885.184 192.028Z" fill="white"/>
<path d="M1087.65 195.394C1008.55 195.394 952.433 157.869 952.433 97.6986C952.433 37.8625 1008.89 0 1087.65 0C1166.42 0 1223.21 37.5243 1223.21 97.6986C1223.21 157.873 1167.77 195.394 1087.65 195.394ZM1087.65 25.0154C1028.83 25.0154 983.532 50.706 983.532 97.6986C983.532 145.025 1028.83 170.378 1087.65 170.378C1146.47 170.378 1192.11 145.025 1192.11 97.6986C1192.11 50.706 1146.47 25.0154 1087.65 25.0154Z" fill="white"/>
<path d="M664.204 396.687V348.434C664.204 336.887 673.565 327.526 685.112 327.526H801.989C824.881 327.526 831.127 359.023 809.967 367.76L693.09 416.013C679.327 421.695 664.204 411.577 664.204 396.687Z" fill="white"/>
<path d="M376.061 649.45H483.466L310.28 329.27H175.192L0 649.45H129.221L278.786 587.046C299.085 578.665 293.092 548.449 271.132 548.449H156.727L242.485 378.842L376.061 649.45Z" fill="white"/>
<path d="M1214.72 363.801L1185.01 425.962C1138.4 401.279 1078.06 388.94 1023.68 388.94C969.744 388.94 939.12 398.992 939.12 417.279C939.12 438.302 977.972 444.699 1054.75 450.641C1161.24 458.868 1228.43 482.178 1228.43 546.621C1228.43 613.349 1153.02 655.851 1029.16 655.851C943.237 655.851 876.97 634.372 832.632 597.349L878.338 543.421C912.617 572.671 976.147 588.666 1037.39 588.666C1096.8 588.666 1133.37 574.497 1133.37 554.392C1133.37 531.082 1090.86 525.142 1008.14 518.738C918.103 511.884 844.059 489.032 844.059 424.589C844.059 365.632 913.074 322.212 1031.44 322.212C1098.17 322.212 1162.62 335.007 1214.72 363.801Z" fill="white"/>
<path d="M1412.1 649.452V394.881H1252.13V328.608H1663.01V394.881H1503.04V649.452H1412.1Z" fill="white"/>
<path d="M2147.88 488.574C2147.88 590.039 2052.82 655.849 1912.51 655.849C1771.74 655.849 1678.05 590.038 1678.05 488.574C1678.05 385.285 1774.93 322.212 1912.51 322.212C2050.08 322.212 2147.88 385.286 2147.88 488.574ZM1774.02 487.662C1774.02 549.818 1830.24 589.583 1912.51 589.583C1994.32 589.583 2049.62 549.819 2049.62 487.662C2049.62 420.477 1993.86 388.94 1912.51 388.94C1831.16 388.94 1774.02 420.477 1774.02 487.662Z" fill="white"/>
<path d="M2600 649.452L2463.96 529.251C2542.92 529.251 2593.17 480.802 2593.17 429.161C2593.17 372.028 2540.61 328.608 2421.78 328.608H2211.09V649.452H2302.49V393.507H2408.99C2467.03 393.507 2496.28 406.307 2496.28 435.559C2496.28 465.265 2474.09 482.633 2413.76 482.633H2361.65C2349.45 482.633 2341.94 485.458 2338.5 493.628C2335.52 500.721 2338.1 508.076 2350.78 521.994L2473.15 649.452H2600Z" fill="white"/>
<path d="M610.08 328.646H519.121V648.827H610.08V328.646Z" fill="white"/>
</g>
<defs>
<clipPath id="clip0_427_268">
<rect width="2600" height="655.849" fill="white"/>
</clipPath>
</defs>
</svg>
