<svg id="Layer_1" data-name="Layer 1" xmlns="http://www.w3.org/2000/svg" viewBox="0 0 102 77"><defs><style>.cls-1{fill:#fff;}.cls-2{fill:#090a0f;}.cls-3{fill:#00a88e;}</style></defs><title>k_United</title><rect class="cls-1" width="102" height="77"/><rect class="cls-2" x="1" y="1" width="100" height="75"/><rect class="cls-3" x="1" y="29" width="100" height="2"/><path class="cls-1" d="M12.14,39.44h4c2,0,3.24,1.08,3.24,2.92s-1.21,2.87-3.13,2.91H14.93v.17l4.31,4.5H17.8l-4.38-4.65h-.17v4.65H12.14ZM16,44.3c1.56,0,2.16-.84,2.16-1.94s-.6-1.93-2.16-1.93H13.25V44.3Z"/><path class="cls-1" d="M20.4,46.35a3.5,3.5,0,0,1,3.53-3.82,3.17,3.17,0,0,1,3.34,3.28v.84H21.52a2.31,2.31,0,0,0,2.42,2.42,2.06,2.06,0,0,0,2.12-1.4h1.11a3.13,3.13,0,0,1-3.23,2.45A3.47,3.47,0,0,1,20.4,46.35Zm5.78-.64a2.07,2.07,0,0,0-2.25-2.15,2.3,2.3,0,0,0-2.39,2.15Z"/><path class="cls-1" d="M28.45,51.35a2,2,0,0,1,.88-1.64v-.18a1,1,0,0,1-.6-1,1.91,1.91,0,0,1,.6-1.25l.2-.22a2.64,2.64,0,0,1-.69-1.82,2.71,2.71,0,0,1,2.94-2.73,3.46,3.46,0,0,1,1.09.17h3.06v1H34.22a2.48,2.48,0,0,1,.51,1.56A2.7,2.7,0,0,1,31.78,48a3.49,3.49,0,0,1-1.46-.31l-.13.15a1.19,1.19,0,0,0-.33.6c0,.18.12.42.51.42H33a2.14,2.14,0,0,1,2.4,2.23c0,1.26-.78,2.36-2.88,2.36H31.15C29,53.42,28.45,52.35,28.45,51.35Zm4.14,1c.69,0,1.65-.33,1.65-1.32,0-.75-.47-1.21-1.41-1.21H30.38a1.55,1.55,0,0,0-.81,1.32c0,.7.48,1.21,1.65,1.21Zm1-7.12a1.67,1.67,0,0,0-1.84-1.68,1.69,1.69,0,1,0,0,3.36A1.68,1.68,0,0,0,33.62,45.26Z"/><path class="cls-1" d="M37.18,39.89h1.25v1.24H37.18Zm.08,2.82h1.09v7.23H37.26Z"/><path class="cls-1" d="M39.91,47.78H41c.12.73.79,1.3,2,1.3,1.38,0,1.79-.55,1.79-1.26s-.62-1-1.35-1.06l-1-.09c-1.43-.12-2.19-.74-2.19-1.94,0-1.36,1.12-2.2,2.71-2.2s2.61.76,2.76,2.11H44.56c-.1-.67-.7-1.08-1.63-1.08s-1.64.36-1.64,1.14.53.95,1.44,1l.92.07c1.36.09,2.23.59,2.23,2s-1,2.31-2.89,2.31S40,49.11,39.91,47.78Z"/><path class="cls-1" d="M48.41,47.85V43.73H46.8v-1h1.61v-2H49.5v2h2.42v1H49.5v3.88c0,.9.39,1.31,1.31,1.31h1.08v1H50.51A1.91,1.91,0,0,1,48.41,47.85Z"/><path class="cls-1" d="M53,46.35a3.5,3.5,0,0,1,3.53-3.82,3.17,3.17,0,0,1,3.34,3.28v.84H54.1a2.32,2.32,0,0,0,2.43,2.42,2.06,2.06,0,0,0,2.12-1.4h1.11a3.13,3.13,0,0,1-3.23,2.45A3.47,3.47,0,0,1,53,46.35Zm5.78-.64a2.07,2.07,0,0,0-2.25-2.15,2.3,2.3,0,0,0-2.39,2.15Z"/><path class="cls-1" d="M61.6,42.71h1.09v1h.17a1.83,1.83,0,0,1,1.78-1.11h1v1.1H64.54c-1.26,0-1.85.85-1.85,2.22v4H61.6Z"/><path class="cls-1" d="M66.48,46.35c0-2.14,1.3-3.82,3.52-3.82a3.17,3.17,0,0,1,3.35,3.28v.84H67.59A2.32,2.32,0,0,0,70,49.07a2.06,2.06,0,0,0,2.11-1.4h1.11A3.11,3.11,0,0,1,70,50.12,3.46,3.46,0,0,1,66.48,46.35Zm5.77-.64A2.06,2.06,0,0,0,70,43.56a2.29,2.29,0,0,0-2.38,2.15Z"/><path class="cls-1" d="M74.78,46.34c0-2.67,1.78-3.81,3.43-3.81a3.14,3.14,0,0,1,2.52,1.15V39.14h1.1v10.8h-1.1v-1h-.18a3,3,0,0,1-2.47,1.22C76.55,50.12,74.78,49,74.78,46.34Zm6,0a2.42,2.42,0,0,0-2.4-2.73,2.46,2.46,0,0,0-2.46,2.73,2.46,2.46,0,0,0,2.46,2.73A2.42,2.42,0,0,0,80.73,46.32Z"/><path class="cls-1" d="M19.6,58.5a3,3,0,0,1-3.24,3.07H13.25v4.37H12.14V55.44h4.22A2.94,2.94,0,0,1,19.6,58.5Zm-1.14,0a1.93,1.93,0,0,0-2.16-2.07H13.25v4.14H16.3A1.93,1.93,0,0,0,18.46,58.5Z"/><path class="cls-1" d="M26.85,61v4.92H25.76v-.77h-.17a3.29,3.29,0,0,1-2.34,1c-1.78,0-2.62-1-2.62-2.19s.9-2.24,2.56-2.24h2.57v-.61c0-.86-.51-1.5-1.8-1.5s-1.8.54-1.91,1.39H20.93c.15-1.5,1.29-2.44,3.06-2.44S26.85,59.29,26.85,61Zm-1.09,2.85V62.62H23.24c-1,0-1.47.45-1.47,1.23s.67,1.26,1.63,1.26A2.86,2.86,0,0,0,25.76,63.87Z"/><path class="cls-1" d="M28.83,58.71h1.1v1h.16a1.85,1.85,0,0,1,1.79-1.11h1v1.1H31.77c-1.26,0-1.84.85-1.84,2.22v4h-1.1Z"/><path class="cls-1" d="M35.41,63.85V59.73H33.8v-1h1.61v-2H36.5v2h2.42v1H36.5v3.88c0,.9.39,1.31,1.31,1.31h1.07v1H37.5A1.91,1.91,0,0,1,35.41,63.85Z"/><path class="cls-1" d="M40.44,58.71h1.1v.93h.16a2.44,2.44,0,0,1,2.22-1.11,2.56,2.56,0,0,1,2.72,2.79v4.62h-1.1V61.57a1.79,1.79,0,0,0-1.92-2,2,2,0,0,0-2.08,2.25v4.07h-1.1Z"/><path class="cls-1" d="M48.3,62.35a3.5,3.5,0,0,1,3.53-3.82,3.17,3.17,0,0,1,3.34,3.28v.84H49.41a2.32,2.32,0,0,0,2.43,2.42A2.06,2.06,0,0,0,54,63.67h1.11a3.13,3.13,0,0,1-3.23,2.45A3.47,3.47,0,0,1,48.3,62.35Zm5.78-.64a2.07,2.07,0,0,0-2.25-2.15,2.3,2.3,0,0,0-2.39,2.15Z"/><path class="cls-1" d="M56.91,58.71H58v1h.17A1.83,1.83,0,0,1,60,58.6h1v1.1H59.85c-1.26,0-1.85.85-1.85,2.22v4H56.91Z"/><g id="CMYK_Logo_White"><path class="cls-1" d="M47.55,15.35c0,3-1.83,4.42-4.12,4.42H42V18h1.29c1.38,0,2.3-.75,2.3-2.62s-.87-2.78-2.34-2.78-2.43.87-2.43,2.75v7.52H38.94V11h1.91v1h.27a3.1,3.1,0,0,1,2.56-1.24C45.79,10.79,47.55,12.32,47.55,15.35ZM35,14.57l-1.27-.13c-1-.09-1.53-.36-1.53-.94s.67-1.09,1.64-1.09,1.63.47,1.69,1.14h1.83c-.07-1.7-1.4-2.76-3.5-2.76s-3.57,1.13-3.57,2.78c0,1.38.88,2.27,2.86,2.47l1.29.13c.78.07,1.3.24,1.3,1s-.49,1.16-1.78,1.16a1.8,1.8,0,0,1-2-1.26H30C30.21,18.7,31.6,20,34,20s3.69-1.18,3.69-2.92C37.66,15.52,36.64,14.73,35,14.57Zm19.92,2.48a2.09,2.09,0,0,1-2,1.21c-1.4,0-2.44-.91-2.44-2.87s1-2.91,2.45-2.91a2,2,0,0,1,2.17,2H51.65v1.38H57V15a3.89,3.89,0,0,0-4.05-4.16,4.26,4.26,0,0,0-4.35,4.6A4.25,4.25,0,0,0,52.91,20a3.91,3.91,0,0,0,3.92-2.93Zm-30-6.26c-2.09,0-3.65,1.09-3.83,2.76h2.05c.15-.61.71-1.07,1.78-1.07,1.38,0,1.84.73,1.84,1.62v3a3.44,3.44,0,0,1-2.6,1.3c-.94,0-1.6-.45-1.6-1.27s.51-1.27,1.49-1.27H25.6V14.48H24c-2.18,0-3.4,1.09-3.4,2.76S21.8,20,23.74,20a4.69,4.69,0,0,0,2.77-1h.27v.75h1.91V13.92C28.69,11.75,27.21,10.79,24.94,10.79ZM12,19.77h1.91v-12H12ZM20,11H17.69l-2.78,3.65v1.15l2.85,4h2.36l-3.34-4.55Zm68.88,0-1.56,3.47a12.44,12.44,0,0,0-.85,2.2H86.2a12.36,12.36,0,0,0-.87-2.18L83.77,11H81.66l3.67,7.87-1.82,4h2L91,11Zm-7.65,0H78.91l-2.78,3.65v1.15l2.86,4h2.36L78,15.22ZM69.3,14.57,68,14.44c-1-.09-1.52-.36-1.52-.94s.67-1.09,1.63-1.09,1.64.47,1.69,1.14h1.84c-.07-1.7-1.4-2.76-3.51-2.76s-3.56,1.13-3.56,2.78c0,1.38.87,2.27,2.85,2.47l1.29.13c.78.07,1.31.24,1.31,1s-.49,1.16-1.78,1.16a1.81,1.81,0,0,1-2-1.26h-2c.19,1.65,1.58,2.93,4,2.93S72,18.8,72,17.06C72,15.52,70.93,14.73,69.3,14.57Zm3.93,5.2h1.91v-12H73.23ZM60.65,12h-.27V11H58.47v8.76h1.91V15.19c0-1.56.72-2.47,2.14-2.47h1.21V10.79H63A2.49,2.49,0,0,0,60.65,12Z"/></g></svg>