<svg xmlns="http://www.w3.org/2000/svg" viewBox="0 0 102 77"><defs><style>.cls-1{fill:#fff;}.cls-2{fill:#090a0f;}</style></defs><title>k_United_bw</title><g id="Layer_2" data-name="Layer 2"><rect class="cls-1" width="102" height="77"/><rect class="cls-2" x="1" y="1" width="100" height="28"/><rect class="cls-2" x="1" y="31" width="100" height="45"/><path class="cls-1" d="M12.142,39.438H16.1c1.994,0,3.239,1.08,3.239,2.925,0,1.815-1.215,2.865-3.134,2.909H14.932v.166l4.3,4.5H17.8l-4.379-4.65h-.166v4.65H12.142Zm3.9,4.86c1.56,0,2.16-.84,2.16-1.935s-.6-1.935-2.16-1.935H13.251V44.3Z"/><path class="cls-1" d="M20.405,46.353a3.5,3.5,0,0,1,3.525-3.825,3.174,3.174,0,0,1,3.345,3.285v.84h-5.76a2.322,2.322,0,0,0,2.43,2.414,2.054,2.054,0,0,0,2.115-1.4h1.11a3.121,3.121,0,0,1-3.225,2.446A3.463,3.463,0,0,1,20.405,46.353Zm5.775-.645a2.066,2.066,0,0,0-2.25-2.145,2.288,2.288,0,0,0-2.385,2.145Z"/><path class="cls-1" d="M28.447,51.348a1.946,1.946,0,0,1,.885-1.636v-.179a1.041,1.041,0,0,1-.6-.975,1.888,1.888,0,0,1,.6-1.245l.2-.226a2.628,2.628,0,0,1-.69-1.815,2.705,2.705,0,0,1,2.94-2.729,3.643,3.643,0,0,1,1.095.165h3.06v1.005h-1.71a2.47,2.47,0,0,1,.509,1.559,2.7,2.7,0,0,1-2.954,2.7,3.405,3.405,0,0,1-1.455-.315l-.135.15a1.191,1.191,0,0,0-.33.6c0,.179.12.42.51.42h2.58a2.139,2.139,0,0,1,2.4,2.235c0,1.259-.781,2.354-2.88,2.354H31.146C28.972,53.417,28.447,52.353,28.447,51.348Zm4.139,1.034c.69,0,1.65-.33,1.65-1.319,0-.75-.465-1.215-1.409-1.215H30.382a1.558,1.558,0,0,0-.81,1.319c0,.706.48,1.215,1.65,1.215Zm1.036-7.124a1.677,1.677,0,0,0-1.845-1.68,1.686,1.686,0,1,0,0,3.36A1.677,1.677,0,0,0,33.622,45.258Z"/><path class="cls-1" d="M37.184,39.888h1.245v1.245H37.184Zm.075,2.82h1.095v7.23H37.259Z"/><path class="cls-1" d="M39.911,47.777h1.125c.12.736.8,1.306,1.965,1.306,1.38,0,1.785-.556,1.785-1.26,0-.825-.615-1.006-1.35-1.065l-1.05-.091c-1.425-.119-2.19-.734-2.19-1.934,0-1.365,1.125-2.2,2.715-2.2,1.62,0,2.61.765,2.76,2.115h-1.11c-.1-.675-.7-1.08-1.635-1.08s-1.635.36-1.635,1.14c0,.66.525.944,1.44,1l.915.075c1.365.09,2.235.585,2.235,2.025,0,1.35-1.005,2.31-2.9,2.31S40.016,49.112,39.911,47.777Z"/><path class="cls-1" d="M48.407,47.853V43.728H46.8v-1.02h1.6v-1.95H49.5v1.95h2.416v1.02H49.5v3.885c0,.9.391,1.3,1.306,1.3h1.079v1.021h-1.38A1.906,1.906,0,0,1,48.407,47.853Z"/><path class="cls-1" d="M52.993,46.353a3.5,3.5,0,0,1,3.525-3.825,3.174,3.174,0,0,1,3.345,3.285v.84H54.1a2.321,2.321,0,0,0,2.429,2.414,2.054,2.054,0,0,0,2.115-1.4h1.11a3.121,3.121,0,0,1-3.225,2.446A3.463,3.463,0,0,1,52.993,46.353Zm5.775-.645a2.066,2.066,0,0,0-2.25-2.145,2.288,2.288,0,0,0-2.385,2.145Z"/><path class="cls-1" d="M61.6,42.708h1.094v1.005h.165a1.839,1.839,0,0,1,1.786-1.11h.96V43.7H64.538c-1.261,0-1.846.855-1.846,2.219v4.021H61.6Z"/><path class="cls-1" d="M66.478,46.353A3.5,3.5,0,0,1,70,42.528a3.174,3.174,0,0,1,3.345,3.285v.84h-5.76a2.322,2.322,0,0,0,2.43,2.414,2.054,2.054,0,0,0,2.115-1.4h1.11a3.121,3.121,0,0,1-3.225,2.446A3.463,3.463,0,0,1,66.478,46.353Zm5.775-.645A2.066,2.066,0,0,0,70,43.563a2.288,2.288,0,0,0-2.385,2.145Z"/><path class="cls-1" d="M74.779,46.338c0-2.67,1.785-3.81,3.435-3.81a3.155,3.155,0,0,1,2.52,1.155V39.138h1.095v10.8H80.734V48.9h-.18a2.984,2.984,0,0,1-2.474,1.216C76.549,50.118,74.779,48.962,74.779,46.338Zm5.955-.015a2.422,2.422,0,0,0-2.4-2.73,2.461,2.461,0,0,0-2.459,2.73,2.461,2.461,0,0,0,2.459,2.73A2.422,2.422,0,0,0,80.734,46.323Z"/><path class="cls-1" d="M19.6,58.5a2.952,2.952,0,0,1-3.24,3.075H13.251v4.365H12.142v-10.5h4.214A2.941,2.941,0,0,1,19.6,58.5Zm-1.139,0a1.932,1.932,0,0,0-2.161-2.07H13.251v4.14H16.3A1.932,1.932,0,0,0,18.457,58.5Z"/><path class="cls-1" d="M26.854,61.018v4.92h-1.1v-.766h-.165a3.318,3.318,0,0,1-2.34.946c-1.784,0-2.624-.946-2.624-2.19,0-1.38.9-2.235,2.565-2.235h2.564v-.615c0-.855-.509-1.5-1.8-1.5-1.185,0-1.8.54-1.9,1.395H20.929a2.745,2.745,0,0,1,3.06-2.445C25.713,58.528,26.854,59.293,26.854,61.018Zm-1.1,2.85V62.623H23.239c-.99,0-1.47.45-1.47,1.23,0,.87.675,1.259,1.635,1.259A2.839,2.839,0,0,0,25.758,63.868Z"/><path class="cls-1" d="M28.833,58.708h1.1v1.005h.165a1.839,1.839,0,0,1,1.785-1.11h.96V59.7H31.773c-1.26,0-1.845.855-1.845,2.219v4.021h-1.1Z"/><path class="cls-1" d="M35.405,63.853V59.728H33.8v-1.02h1.605v-1.95H36.5v1.95h2.415v1.02H36.5v3.885c0,.9.39,1.3,1.3,1.3h1.08v1.021h-1.38A1.907,1.907,0,0,1,35.405,63.853Z"/><path class="cls-1" d="M40.443,58.708h1.095v.93H41.7a2.446,2.446,0,0,1,2.22-1.11,2.556,2.556,0,0,1,2.715,2.79v4.62h-1.1V61.573a1.785,1.785,0,0,0-1.919-1.95,2.043,2.043,0,0,0-2.085,2.25v4.065H40.443Z"/><path class="cls-1" d="M48.3,62.353a3.5,3.5,0,0,1,3.525-3.825,3.174,3.174,0,0,1,3.345,3.285v.84H49.415a2.321,2.321,0,0,0,2.429,2.414,2.054,2.054,0,0,0,2.115-1.395h1.11a3.121,3.121,0,0,1-3.225,2.446A3.463,3.463,0,0,1,48.3,62.353Zm5.775-.645a2.066,2.066,0,0,0-2.25-2.145,2.288,2.288,0,0,0-2.385,2.145Z"/><path class="cls-1" d="M56.909,58.708H58v1.005h.165a1.84,1.84,0,0,1,1.786-1.11h.96V59.7H59.849c-1.261,0-1.846.855-1.846,2.219v4.021H56.909Z"/><g id="CMYK_Logo_White"><path class="cls-1" d="M47.547,15.352c0,3-1.829,4.415-4.118,4.415h-1.4v-1.8h1.29c1.38,0,2.3-.744,2.3-2.616,0-1.853-.871-2.78-2.342-2.78-1.417,0-2.43.873-2.43,2.744v7.521H38.941V11.01h1.908v1.018h.272a3.1,3.1,0,0,1,2.558-1.236C45.786,10.792,47.547,12.318,47.547,15.352ZM35.01,14.571l-1.272-.127c-1-.091-1.526-.364-1.526-.945,0-.69.672-1.09,1.635-1.09,1,0,1.635.472,1.689,1.144h1.835c-.072-1.707-1.4-2.761-3.506-2.761-2.126,0-3.561,1.126-3.561,2.78,0,1.38.872,2.271,2.852,2.471l1.29.127c.782.072,1.308.236,1.308.981,0,.672-.49,1.162-1.78,1.162A1.8,1.8,0,0,1,32,17.052H30.01c.2,1.652,1.586,2.933,3.964,2.933,2.235,0,3.688-1.181,3.688-2.925C37.662,15.516,36.645,14.734,35.01,14.571Zm19.925,2.481a2.11,2.11,0,0,1-2.029,1.207c-1.4,0-2.435-.908-2.435-2.871,0-1.871.963-2.906,2.453-2.906a1.993,1.993,0,0,1,2.162,2H51.652v1.381h5.305v-.909a3.891,3.891,0,0,0-4.051-4.16,4.253,4.253,0,0,0-4.342,4.6,4.253,4.253,0,0,0,4.342,4.6,3.912,3.912,0,0,0,3.922-2.933Zm-29.992-6.26c-2.089,0-3.652,1.09-3.833,2.761h2.053c.145-.617.708-1.071,1.78-1.071,1.381,0,1.835.727,1.835,1.617v3a3.448,3.448,0,0,1-2.6,1.308c-.945,0-1.6-.454-1.6-1.271,0-.782.509-1.272,1.49-1.272H25.6V14.48h-1.58c-2.18,0-3.4,1.09-3.4,2.762,0,1.562,1.181,2.743,3.125,2.743a4.684,4.684,0,0,0,2.762-.963h.272v.745h1.908v-5.85C28.686,11.755,27.214,10.792,24.943,10.792ZM12,19.767h1.908V7.776H12Zm8.012-8.757H17.687l-2.78,3.652v1.144l2.852,3.961h2.362l-3.343-4.542Zm68.881,0L87.33,14.48a12.343,12.343,0,0,0-.854,2.2H86.2a12.542,12.542,0,0,0-.872-2.181L83.769,11.01H81.662l3.67,7.867-1.817,3.96H85.55L91,11.01Zm-7.653,0H78.914l-2.779,3.652v1.144l2.852,3.961h2.362l-3.343-4.542ZM69.3,14.571l-1.272-.127c-1-.091-1.526-.364-1.526-.945,0-.69.672-1.09,1.635-1.09,1,0,1.635.472,1.69,1.144h1.835c-.073-1.707-1.4-2.761-3.507-2.761-2.125,0-3.56,1.126-3.56,2.78,0,1.38.872,2.271,2.852,2.471l1.29.127c.781.072,1.308.236,1.308.981,0,.672-.491,1.162-1.781,1.162a1.8,1.8,0,0,1-1.978-1.261H64.3c.2,1.652,1.585,2.933,3.963,2.933,2.235,0,3.689-1.181,3.689-2.925C71.949,15.516,70.931,14.734,69.3,14.571Zm3.932,5.2h1.907V7.776H73.228Zm-12.58-7.739h-.272V11.01H58.468v8.757h1.908V15.189c0-1.563.722-2.471,2.144-2.471h1.207V10.792h-.7A2.493,2.493,0,0,0,60.648,12.028Z"/></g></g></svg>