<?xml version="1.0" encoding="utf-8"?>
<!-- Generator: Adobe Illustrator 28.3.0, SVG Export Plug-In . SVG Version: 6.00 Build 0)  -->
<svg version="1.1" id="Layer_1" xmlns="http://www.w3.org/2000/svg" xmlns:xlink="http://www.w3.org/1999/xlink" x="0px" y="0px"
	 viewBox="0 0 190 50" style="enable-background:new 0 0 190 50;" xml:space="preserve">
<style type="text/css">
	.st0{fill:#616C74;}
	.st1{fill-rule:evenodd;clip-rule:evenodd;fill:#2E74BC;}
	.st2{fill-rule:evenodd;clip-rule:evenodd;fill:#E1763D;}
	.st3{fill:#2E74BC;}
	.st4{fill:#727E84;}
</style>
<g>
	<g>
		<path class="st0" d="M62.5,27.4c-2.7,0-5.1-0.5-7-1.6c-1.9-1-3.4-2.5-4.4-4.4c-1-1.9-1.5-4.1-1.5-6.7c0-2.6,0.5-4.9,1.6-7
			C52.4,5.7,54,4.1,56,3c2-1.2,4.3-1.7,6.8-1.7c3.3,0,6.1,0.8,8.3,2.5l-1.3,2.3c-2-1.4-4.3-2.1-6.9-2.1c-1.9,0-3.6,0.5-5.1,1.4
			c-1.5,0.9-2.6,2.2-3.4,3.8s-1.2,3.4-1.2,5.4c0,3,0.8,5.5,2.4,7.3c1.6,1.8,4,2.7,7.1,2.7c2.1,0,3.9-0.3,5.5-0.9v-7.2h-6.4v-2.8h9.7
			v11.9C68.8,26.8,65.8,27.4,62.5,27.4z"/>
		<path class="st0" d="M83.7,27.4c-2.8,0-5.1-0.8-6.8-2.5c-1.7-1.7-2.5-3.9-2.5-6.7c0-2.7,0.8-5,2.4-6.8c1.6-1.8,3.7-2.7,6.4-2.7
			c1.7,0,3.1,0.4,4.3,1.2c1.2,0.8,2.1,1.8,2.6,3.2c0.6,1.3,0.9,2.9,0.9,4.6c0,0.2,0,0.5-0.1,0.9H77.8c0,2,0.6,3.5,1.7,4.6
			c1.1,1.1,2.6,1.6,4.4,1.6c2.1,0,4-0.7,5.7-2l1,2.4C88.6,26.7,86.4,27.4,83.7,27.4z M77.9,16.4h10.2c-0.1-1.6-0.6-2.9-1.4-3.8
			c-0.8-0.9-1.9-1.3-3.3-1.3c-1.5,0-2.7,0.5-3.7,1.4C78.7,13.5,78.1,14.8,77.9,16.4z"/>
		<path class="st0" d="M102.3,27.4c-2.9,0-5.1-0.9-6.8-2.6c-1.6-1.7-2.4-4-2.4-6.7c0-2.8,0.8-5.1,2.5-6.8c1.6-1.7,3.9-2.6,6.8-2.6
			c2.9,0,5.1,0.9,6.7,2.6c1.6,1.7,2.4,4,2.4,6.8c0,2.8-0.8,5-2.4,6.7C107.4,26.5,105.1,27.4,102.3,27.4z M102.3,24.8
			c1.9,0,3.3-0.6,4.3-1.8c1-1.2,1.5-2.8,1.5-4.9c0-2.1-0.5-3.7-1.5-4.9c-1-1.2-2.4-1.9-4.3-1.9c-1.9,0-3.3,0.6-4.3,1.9
			c-1,1.2-1.5,2.9-1.5,4.9c0,2,0.5,3.6,1.5,4.9C98.9,24.2,100.4,24.8,102.3,24.8z"/>
		<path class="st0" d="M117.2,27V4.5h-8.1V1.7h19.6v2.8h-8.1V27H117.2z"/>
		<path class="st0" d="M128.6,27V13.6c0-0.4,0-1-0.1-1.7c0-0.7-0.1-1.4-0.1-1.9l-0.1-0.8h3.4l0,2.8c1.1-2.1,2.7-3.2,4.8-3.2
			c0.7,0,1.3,0.1,1.8,0.2l0,2.8c-0.7-0.2-1.3-0.3-2-0.3c-1.4,0-2.5,0.5-3.3,1.4s-1.3,2.3-1.3,4.1V27H128.6z"/>
		<path class="st0" d="M147.5,27.4c-2.3,0-4-0.7-5.2-2c-1.1-1.3-1.7-3.1-1.7-5.3v-11h3.2v11c0,1.5,0.4,2.7,1.1,3.5
			c0.7,0.8,1.8,1.2,3.1,1.2c1.6,0,2.8-0.4,3.7-1.3c0.9-0.9,1.3-2,1.3-3.5V9.2h3.2v13.4c0,1.6,0.1,3.1,0.2,4.4h-3.3l-0.1-2.9
			c-0.5,0.9-1.2,1.7-2.1,2.3C150,27.1,148.8,27.4,147.5,27.4z"/>
		<path class="st0" d="M165.8,27.4c-1.5,0-2.9-0.2-4.1-0.7c-1.2-0.5-2.1-1-2.7-1.5l0.9-2.4c0.7,0.5,1.5,0.9,2.5,1.3
			c1,0.4,2.1,0.6,3.1,0.6c2.4,0,3.6-0.9,3.6-2.6c0-0.7-0.3-1.3-0.8-1.6c-0.5-0.4-1.6-0.8-3.1-1.3l-1.5-0.5c-0.6-0.2-1.1-0.4-1.5-0.6
			c-0.4-0.2-0.8-0.4-1.2-0.7c-0.4-0.3-0.8-0.6-1-0.9c-0.3-0.3-0.5-0.7-0.6-1.2c-0.2-0.5-0.2-1-0.2-1.6c0-0.8,0.2-1.6,0.5-2.3
			c0.4-0.7,0.8-1.2,1.5-1.5c0.6-0.4,1.3-0.7,2-0.9c0.7-0.2,1.5-0.3,2.4-0.3c2.4,0,4.3,0.5,6,1.5l-0.9,2.3c-1.6-0.8-3.1-1.3-4.7-1.3
			c-1.1,0-2,0.2-2.7,0.6c-0.6,0.4-0.9,1-0.9,1.7c0,0.6,0.2,1.1,0.6,1.4c0.4,0.3,1.1,0.7,2.3,1.1c1,0.3,1.6,0.5,1.8,0.6
			c0.7,0.3,1.3,0.5,1.8,0.7c0.4,0.2,0.9,0.4,1.4,0.7c0.5,0.3,0.9,0.6,1.2,1c0.3,0.3,0.5,0.8,0.7,1.3c0.2,0.5,0.3,1.1,0.3,1.7
			c0,1-0.2,1.8-0.5,2.5c-0.4,0.7-0.8,1.3-1.5,1.7c-0.6,0.4-1.3,0.7-2,0.9C167.3,27.3,166.6,27.4,165.8,27.4z"/>
		<path class="st0" d="M184.3,27h-1.5c-2.5,0-4.3-0.5-5.2-1.4c-0.9-0.9-1.4-2.5-1.4-4.8v-9.5h-3.4V9.2h3.5V4.6l3.1-0.9v5.5h4.8v2.1
			h-4.8V21c0,0.6,0,1.2,0.1,1.5c0.1,0.4,0.2,0.7,0.4,1c0.2,0.3,0.5,0.5,0.9,0.6c0.4,0.1,0.9,0.2,1.4,0.3c0.5,0.1,1.2,0.1,2.1,0.1V27
			z"/>
	</g>
	<path class="st1" d="M17.5,9.4c3.5-2.4,7.3-3.3,10.4-2.9V0.9H1.4v26.8h9.1c-0.1-0.2-0.2-0.4-0.3-0.6C7.6,21.8,10.9,13.9,17.5,9.4
		L17.5,9.4z"/>
	<path class="st2" d="M27.8,9.5c-7,0-12.7,5.7-12.7,12.7c0,0.8,0.1,1.6,0.2,2.3c0.3,1.4,1,1.8,1.7,2.1c0.3,0.1,0.6,0.2,0.8,0.2
		c1.3,0.1,2.7-0.2,4.1-1.1c1.8-1.1,3.1-2.9,3.8-5c-2.2,0.3-4.4,0.6-6.5,1l0-4l14.3-1l-0.1,13.4l-4.3,0.3c0,0,0,0,0,0
		c0-0.1,0-0.3,0.1-0.4c0.2-1.1,0.3-2.3,0.4-3.4c0.1-0.7,0.1-1.3,0.2-2c-0.5,0.7-1.2,1.4-1.9,2c-0.6,0.6-1.3,1.1-2.1,1.6
		c-0.4,0.3-0.9,0.5-1.4,0.8c-1,0.5-2,0.8-3,1.1c-0.8,0.2-2.2,0.3-3.4,0.3c2.3,2.7,5.8,4.4,9.6,4.4c7,0,12.7-5.7,12.7-12.7
		C40.5,15.2,34.8,9.5,27.8,9.5L27.8,9.5z"/>
	<path class="st0" d="M187.4,24.6c-0.7,0-1.2,0.5-1.2,1.2c0,0.7,0.5,1.2,1.2,1.2c0.7,0,1.2-0.5,1.2-1.2
		C188.6,25.1,188.1,24.6,187.4,24.6 M187.4,26.8c-0.5,0-1-0.4-1-1c0-0.5,0.4-1,1-1c0.5,0,1,0.4,1,1
		C188.4,26.3,187.9,26.8,187.4,26.8"/>
	<g>
		<path class="st0" d="M187,26.5v-1.3h0.4c0.1,0,0.2,0,0.3,0c0.1,0,0.1,0.1,0.2,0.1c0,0.1,0.1,0.1,0.1,0.2c0,0.1,0,0.2-0.1,0.2
			c0,0.1-0.1,0.1-0.2,0.1v0c0,0,0,0,0,0.1l0.3,0.5h-0.2l-0.3-0.5h-0.3v0.5H187z M187.2,25.8h0.3c0.1,0,0.1,0,0.2-0.1
			c0,0,0.1-0.1,0.1-0.2c0-0.1,0-0.2-0.1-0.2c0,0-0.1,0-0.2,0h-0.2V25.8z"/>
	</g>
	<g>
		<g>
			<path class="st3" d="M142.9,41.9c0-1.1,0.3-2,0.9-2.7c0.6-0.7,1.4-1,2.3-1c0.3,0,0.6,0,0.9,0.1c0.3,0.1,0.5,0.2,0.6,0.3
				c0.2,0.1,0.3,0.2,0.4,0.3c0.1,0.1,0.2,0.2,0.2,0.3l0.1,0.1h0c0-0.1,0-0.3,0-0.5v-3.3h1.4v10h-1.3v-0.7l0-0.5h0c0,0,0,0.1-0.1,0.1
				c0,0.1-0.1,0.2-0.2,0.3c-0.1,0.2-0.3,0.3-0.4,0.4c-0.2,0.1-0.4,0.2-0.7,0.3c-0.3,0.1-0.6,0.1-0.9,0.1c-1,0-1.7-0.3-2.3-1
				C143.1,43.9,142.9,43,142.9,41.9z M144.3,41.9c0,0.8,0.2,1.4,0.6,1.9c0.4,0.5,0.9,0.7,1.5,0.7c0.6,0,1.1-0.2,1.5-0.6
				c0.4-0.4,0.6-1.1,0.6-1.9c0-0.7-0.2-1.3-0.5-1.8c-0.4-0.5-0.9-0.8-1.5-0.8c-0.6,0-1.1,0.2-1.5,0.7
				C144.5,40.5,144.3,41.1,144.3,41.9z"/>
			<path class="st3" d="M150.8,36.9v-1.4h1.4v1.4H150.8z M150.8,45.5v-7.2h1.4v7.2H150.8z"/>
			<path class="st3" d="M154.3,46.8c0.6,0.3,1.2,0.5,2,0.5c0.7,0,1.2-0.2,1.6-0.5c0.4-0.3,0.6-0.8,0.6-1.5v-0.5l0-0.5h0
				c-0.4,0.7-1.1,1.1-2.1,1.1c-1,0-1.7-0.3-2.3-1c-0.6-0.7-0.9-1.6-0.9-2.6c0-1.1,0.3-1.9,0.8-2.6c0.6-0.7,1.3-1,2.3-1
				c0.3,0,0.6,0,0.9,0.1c0.3,0.1,0.5,0.2,0.7,0.3c0.2,0.1,0.3,0.2,0.4,0.3c0.1,0.1,0.2,0.2,0.2,0.3l0.1,0.1h0c0-0.1,0-0.1,0-0.2
				v-0.7h1.3v6.9c0,0.6-0.1,1.1-0.3,1.5c-0.2,0.4-0.5,0.8-0.8,1c-0.3,0.2-0.7,0.4-1.1,0.6c-0.4,0.1-0.9,0.2-1.3,0.2
				c-0.9,0-1.7-0.2-2.4-0.6L154.3,46.8z M156.7,44.2c0.6,0,1-0.2,1.4-0.6c0.4-0.4,0.5-1,0.5-1.9c0-1.6-0.7-2.4-2-2.4
				c-0.6,0-1.1,0.2-1.4,0.6c-0.3,0.4-0.5,1-0.5,1.7c0,0.8,0.2,1.4,0.6,1.8C155.5,44,156,44.2,156.7,44.2z"/>
			<path class="st3" d="M161,36.9v-1.4h1.4v1.4H161z M161,45.5v-7.2h1.4v7.2H161z"/>
			<path class="st3" d="M163.4,41.9c0-1.1,0.4-2,1.1-2.7c0.7-0.7,1.6-1.1,2.7-1.1c0.5,0,1,0.1,1.5,0.3c0.4,0.2,0.8,0.4,1,0.5
				l0.3,0.3l-0.7,1c-0.1-0.1-0.1-0.1-0.2-0.2c-0.1-0.1-0.3-0.2-0.7-0.4c-0.3-0.2-0.7-0.2-1.1-0.2c-0.7,0-1.3,0.2-1.8,0.7
				c-0.5,0.5-0.7,1.1-0.7,1.8s0.2,1.3,0.7,1.8c0.5,0.5,1.1,0.7,1.8,0.7c0.4,0,0.8-0.1,1.1-0.2c0.4-0.2,0.6-0.3,0.8-0.5l0.3-0.2
				l0.6,1c0,0-0.1,0.1-0.1,0.1c-0.1,0.1-0.2,0.1-0.3,0.3c-0.2,0.1-0.4,0.2-0.6,0.3c-0.2,0.1-0.5,0.2-0.8,0.3c-0.3,0.1-0.7,0.1-1,0.1
				c-1.1,0-2-0.4-2.8-1.1C163.8,43.9,163.4,43,163.4,41.9z"/>
			<path class="st3" d="M170.3,41.9c0-1.1,0.3-2,1-2.7c0.7-0.7,1.5-1,2.6-1c1,0,1.7,0.3,2.3,0.9c0.5,0.6,0.8,1.4,0.8,2.4l0,0.6h-5.2
				c0,0.8,0.3,1.3,0.8,1.7c0.5,0.4,1,0.6,1.7,0.6c0.4,0,0.7-0.1,1.1-0.2c0.4-0.1,0.6-0.3,0.8-0.4l0.3-0.2l0.6,1
				c-0.1,0.1-0.2,0.2-0.3,0.3c-0.2,0.1-0.5,0.3-0.9,0.5c-0.5,0.2-1,0.3-1.5,0.3c-1.1,0-2-0.4-2.7-1.1
				C170.6,43.8,170.3,43,170.3,41.9z M171.7,41h3.8c0-0.6-0.2-1-0.5-1.4c-0.3-0.3-0.7-0.5-1.2-0.5c-0.5,0-1,0.2-1.4,0.5
				C172.1,40,171.8,40.5,171.7,41z"/>
			<path class="st3" d="M177.9,45.5v-7.2h1.3v1.2l0,0.5h0c0.2-0.5,0.5-1,0.9-1.3c0.4-0.3,0.9-0.5,1.4-0.5l0.4,0v1.4
				c-0.1,0-0.3,0-0.4,0c-0.4,0-0.8,0.2-1.2,0.5c-0.4,0.3-0.6,0.7-0.8,1.2c-0.1,0.4-0.2,0.8-0.2,1.3v2.9H177.9z"/>
			<path class="st3" d="M183.6,42.8v-3.3h-0.9v-1.1h1v-2.1h1.3v2.1h1.7v1.1H185v3.2c0,0.3,0,0.5,0.1,0.7c0.1,0.2,0.2,0.4,0.3,0.5
				c0.1,0.1,0.2,0.2,0.4,0.3c0.1,0.1,0.3,0.1,0.4,0.1c0.1,0,0.2,0,0.4,0l0.3,0v1.2c-0.1,0-0.3,0-0.5,0c-0.2,0-0.4,0-0.7,0
				c-0.2,0-0.4-0.1-0.7-0.2c-0.3-0.1-0.5-0.3-0.7-0.4c-0.2-0.2-0.4-0.4-0.5-0.8C183.7,43.7,183.6,43.3,183.6,42.8z"/>
			<path class="st3" d="M187.6,35.5c-0.6,0-1,0.5-1,1c0,0.6,0.5,1,1,1c0.6,0,1-0.5,1-1C188.6,35.9,188.2,35.5,187.6,35.5
				 M187.6,37.3c-0.5,0-0.8-0.4-0.8-0.8c0-0.5,0.4-0.8,0.8-0.8c0.5,0,0.8,0.4,0.8,0.8C188.4,37,188.1,37.3,187.6,37.3"/>
			<g>
				<path class="st3" d="M187.3,37.1v-1.1h0.4c0.1,0,0.2,0,0.2,0c0.1,0,0.1,0.1,0.1,0.1c0,0.1,0.1,0.1,0.1,0.2c0,0.1,0,0.1-0.1,0.2
					c0,0.1-0.1,0.1-0.1,0.1v0c0,0,0,0,0,0.1l0.2,0.4h-0.2l-0.2-0.5h-0.2v0.5H187.3z M187.4,36.5h0.2c0.1,0,0.1,0,0.1-0.1
					c0,0,0.1-0.1,0.1-0.2c0-0.1,0-0.1-0.1-0.2c0,0-0.1,0-0.2,0h-0.2V36.5z"/>
			</g>
		</g>
	</g>
	<g>
		<g>
			<path class="st4" d="M77.6,42.1c0,1.1-0.2,1.9-0.7,2.6c-0.5,0.7-1.2,1-2,1c-0.9,0-1.5-0.3-2-0.8v3.4h-1.2v-9.8h1.1l0.1,0.8
				c0.5-0.6,1.2-0.9,2-0.9c0.8,0,1.5,0.3,2,1c0.5,0.6,0.7,1.5,0.7,2.7V42.1z M76.3,41.9c0-0.8-0.2-1.4-0.5-1.9
				c-0.3-0.5-0.8-0.7-1.4-0.7c-0.7,0-1.3,0.3-1.6,1v3.4c0.4,0.6,0.9,1,1.7,1c0.6,0,1-0.2,1.4-0.7C76.2,43.5,76.3,42.8,76.3,41.9z"/>
			<path class="st4" d="M78.7,41.9c0-0.7,0.1-1.3,0.4-1.9s0.6-1,1.1-1.3s1-0.4,1.7-0.4c1,0,1.7,0.3,2.3,1c0.6,0.7,0.9,1.5,0.9,2.7
				v0.1c0,0.7-0.1,1.3-0.4,1.8s-0.6,1-1.1,1.3c-0.5,0.3-1.1,0.5-1.7,0.5c-1,0-1.7-0.3-2.3-1C79,44,78.7,43.1,78.7,41.9L78.7,41.9z
				 M79.9,42.1c0,0.8,0.2,1.4,0.5,1.9c0.4,0.5,0.8,0.7,1.5,0.7c0.6,0,1.1-0.2,1.5-0.7c0.4-0.5,0.5-1.2,0.5-2c0-0.8-0.2-1.4-0.6-1.9
				s-0.9-0.7-1.5-0.7c-0.6,0-1.1,0.2-1.4,0.7S79.9,41.2,79.9,42.1z"/>
			<path class="st4" d="M92.8,43.9l1.4-5.4h1.2l-2.1,7h-1l-1.7-5.3L89,45.5h-1l-2-7h1.2l1.4,5.3l1.6-5.3h1L92.8,43.9z"/>
			<path class="st4" d="M99.4,45.6c-1,0-1.7-0.3-2.3-0.9c-0.6-0.6-0.9-1.5-0.9-2.5V42c0-0.7,0.1-1.3,0.4-1.9c0.3-0.5,0.6-1,1.1-1.3
				c0.5-0.3,1-0.5,1.6-0.5c0.9,0,1.6,0.3,2.1,0.9c0.5,0.6,0.8,1.5,0.8,2.6v0.5h-4.8c0,0.7,0.2,1.3,0.6,1.7s0.9,0.6,1.5,0.6
				c0.4,0,0.8-0.1,1.1-0.3c0.3-0.2,0.6-0.4,0.8-0.7l0.7,0.6C101.5,45.2,100.6,45.6,99.4,45.6z M99.3,39.3c-0.5,0-0.9,0.2-1.2,0.5
				c-0.3,0.4-0.5,0.8-0.6,1.5h3.5v-0.1c0-0.6-0.2-1.1-0.5-1.4C100.2,39.5,99.8,39.3,99.3,39.3z"/>
			<path class="st4" d="M106.9,39.5c-0.2,0-0.4,0-0.6,0c-0.8,0-1.3,0.3-1.6,1v5h-1.2v-7h1.2l0,0.8c0.4-0.6,1-0.9,1.7-0.9
				c0.2,0,0.4,0,0.5,0.1V39.5z"/>
			<path class="st4" d="M110.8,45.6c-1,0-1.7-0.3-2.3-0.9s-0.9-1.5-0.9-2.5V42c0-0.7,0.1-1.3,0.4-1.9c0.3-0.5,0.6-1,1.1-1.3
				c0.5-0.3,1-0.5,1.6-0.5c0.9,0,1.6,0.3,2.1,0.9c0.5,0.6,0.8,1.5,0.8,2.6v0.5h-4.8c0,0.7,0.2,1.3,0.6,1.7s0.9,0.6,1.5,0.6
				c0.4,0,0.8-0.1,1.1-0.3c0.3-0.2,0.6-0.4,0.8-0.7l0.7,0.6C112.8,45.2,112,45.6,110.8,45.6z M110.6,39.3c-0.5,0-0.9,0.2-1.2,0.5
				c-0.3,0.4-0.5,0.8-0.6,1.5h3.5v-0.1c0-0.6-0.2-1.1-0.5-1.4C111.5,39.5,111.1,39.3,110.6,39.3z"/>
			<path class="st4" d="M114.6,41.9c0-1.1,0.3-2,0.8-2.6c0.5-0.7,1.2-1,2-1c0.8,0,1.5,0.3,2,0.8v-3.7h1.2v10h-1.1l-0.1-0.8
				c-0.5,0.6-1.2,0.9-2,0.9c-0.8,0-1.5-0.3-2-1S114.6,43.1,114.6,41.9L114.6,41.9z M115.8,42.1c0,0.8,0.2,1.4,0.5,1.9
				s0.8,0.7,1.4,0.7c0.8,0,1.3-0.3,1.7-1v-3.2c-0.4-0.7-0.9-1-1.7-1c-0.6,0-1.1,0.2-1.4,0.7S115.8,41.2,115.8,42.1z"/>
			<path class="st4" d="M131.5,42.1c0,1.1-0.2,1.9-0.7,2.6c-0.5,0.7-1.2,1-2,1c-0.9,0-1.6-0.3-2.1-0.9l-0.1,0.8h-1.1v-10h1.2v3.7
				c0.5-0.6,1.2-0.9,2-0.9c0.9,0,1.5,0.3,2,1c0.5,0.6,0.7,1.5,0.7,2.7V42.1z M130.3,41.9c0-0.8-0.2-1.5-0.5-1.9s-0.8-0.7-1.4-0.7
				c-0.8,0-1.4,0.4-1.7,1.1v3c0.4,0.7,0.9,1.1,1.7,1.1c0.6,0,1-0.2,1.3-0.7S130.3,42.8,130.3,41.9z"/>
			<path class="st4" d="M135.2,43.8l1.6-5.3h1.3l-2.8,8.1c-0.4,1.2-1.1,1.8-2.1,1.8l-0.2,0l-0.5-0.1v-1l0.3,0c0.4,0,0.7-0.1,1-0.2
				c0.2-0.2,0.4-0.5,0.6-0.9l0.3-0.7l-2.5-7h1.3L135.2,43.8z"/>
		</g>
	</g>
</g>
</svg>
